<?xml version="1.0" standalone="no"?>
<!DOCTYPE svg PUBLIC "-//W3C//DTD SVG 20010904//EN"
 "http://www.w3.org/TR/2001/REC-SVG-20010904/DTD/svg10.dtd">
<svg version="1.0" xmlns="http://www.w3.org/2000/svg"
 width="32.000000pt" height="32.000000pt" viewBox="0 0 32.000000 32.000000"
 preserveAspectRatio="xMidYMid meet">

<g transform="translate(0.000000,32.000000) scale(0.100000,-0.100000)"
fill="#000000" stroke="none">
<path d="M194 238 c-5 -8 -2 -9 9 -5 10 4 16 2 14 -6 -1 -7 6 -11 16 -9 9 2
17 -1 17 -6 0 -5 9 -12 21 -15 l20 -6 -20 -20 c-12 -12 -27 -21 -33 -21 -7 0
-2 -9 12 -20 l25 -20 -54 0 c-46 0 -52 -2 -41 -15 8 -10 21 -13 39 -8 71 17
108 55 97 99 -11 44 -103 83 -122 52z"/>
<path d="M89 168 c7 -10 11 -18 7 -18 -4 0 1 -11 10 -25 9 -14 26 -25 37 -25
16 0 18 3 9 12 -9 9 -7 14 6 24 16 12 16 13 -3 15 -11 1 -25 3 -31 3 -6 1 -20
8 -30 16 -18 14 -18 14 -5 -2z"/>
<path d="M175 160 c3 -5 11 -10 16 -10 6 0 7 5 4 10 -3 6 -11 10 -16 10 -6 0
-7 -4 -4 -10z"/>
</g>
</svg>
